<?xml version="1.0" encoding="UTF-8"?><svg id="Layer_1" xmlns="http://www.w3.org/2000/svg" viewBox="0 0 319 110"><defs><style>.cls-1{fill:#d0d0d0;}.cls-1,.cls-2,.cls-3,.cls-4{stroke-width:0px;}.cls-2{fill:#878787;}.cls-3{fill:#04a85f;}.cls-4{fill:#5ab031;}</style></defs><path class="cls-4" d="M79.77,29.54V11.99c0-6.64-5.38-11.99-11.99-11.99h-10.88v52.41h40.42c6.64,0,11.99-5.38,11.99-11.99v-10.88h-29.54Z"/><path class="cls-3" d="M29.54,29.54H11.99c-6.64,0-11.99,5.38-11.99,11.99v10.88h52.41V11.99c0-6.64-5.38-11.99-11.99-11.99h-10.88v29.54Z"/><path class="cls-2" d="M29.54,79.77v17.56c0,6.64,5.38,11.99,11.99,11.99h10.88v-52.41H11.99C5.35,56.91,0,62.29,0,68.89v10.88h29.54Z"/><path class="cls-1" d="M79.77,79.77h17.56c6.64,0,11.99-5.38,11.99-11.99v-10.88h-52.41v40.42c0,6.64,5.38,11.99,11.99,11.99h10.88v-29.54Z"/><path class="cls-3" d="M121,.52h6.58v18.06h11.11v5.22h-17.69V.52Z"/><path class="cls-3" d="M138.72,12.16c0-6.98,5.49-12.1,12.94-12.1s12.94,5.12,12.94,12.1-5.49,12.1-12.94,12.1-12.94-5.12-12.94-12.1ZM157.94,12.16c0-4.02-2.76-6.65-6.28-6.65s-6.28,2.63-6.28,6.65,2.76,6.65,6.28,6.65,6.28-2.63,6.28-6.65Z"/><path class="cls-3" d="M165.85,12.16c0-7.08,5.42-12.1,12.8-12.1,4.29,0,7.75,1.56,10.01,4.39l-4.19,3.79c-1.46-1.76-3.26-2.73-5.49-2.73-3.82,0-6.48,2.66-6.48,6.65s2.66,6.65,6.48,6.65c2.23,0,4.02-.96,5.49-2.73l4.19,3.79c-2.26,2.83-5.72,4.39-10.01,4.39-7.38,0-12.8-5.02-12.8-12.1Z"/><path class="cls-3" d="M205.79,19.27h-9.84l-1.83,4.52h-6.72L197.68.52h6.48l10.31,23.28h-6.85l-1.83-4.52ZM203.86,14.42l-2.99-7.45-2.99,7.45h5.99Z"/><path class="cls-3" d="M215.34.52h6.58v18.06h11.11v5.22h-17.69V.52Z"/><path class="cls-3" d="M121,29.1h6.58v18.06h11.11v5.22h-17.69v-23.28Z"/><path class="cls-3" d="M138.72,40.74c0-6.98,5.49-12.1,12.94-12.1s12.94,5.12,12.94,12.1-5.49,12.1-12.94,12.1-12.94-5.12-12.94-12.1ZM157.94,40.74c0-4.02-2.76-6.65-6.28-6.65s-6.28,2.63-6.28,6.65,2.76,6.65,6.28,6.65,6.28-2.63,6.28-6.65Z"/><path class="cls-3" d="M189.2,29.1v23.28h-5.42l-10.28-12.4v12.4h-6.45v-23.28h5.42l10.28,12.4v-12.4h6.45Z"/><path class="cls-3" d="M192.86,29.1h11.01c7.71,0,13,4.49,13,11.64s-5.29,11.64-13,11.64h-11.01v-23.28ZM203.6,47.12c3.96,0,6.62-2.36,6.62-6.38s-2.66-6.38-6.62-6.38h-4.16v12.77h4.16Z"/><path class="cls-3" d="M218.13,40.74c0-6.98,5.49-12.1,12.94-12.1s12.94,5.12,12.94,12.1-5.49,12.1-12.94,12.1-12.94-5.12-12.94-12.1ZM237.35,40.74c0-4.02-2.76-6.65-6.28-6.65s-6.28,2.63-6.28,6.65,2.76,6.65,6.28,6.65,6.28-2.63,6.28-6.65Z"/><path class="cls-3" d="M268.61,29.1v23.28h-5.42l-10.28-12.4v12.4h-6.45v-23.28h5.42l10.28,12.4v-12.4h6.45Z"/><path class="cls-2" d="M119.37,78.86l2.16-4.85c2.06,1.36,4.99,2.29,7.68,2.29s3.79-.76,3.79-1.9c0-3.69-13.23-1-13.23-9.64,0-4.16,3.39-7.55,10.31-7.55,3.03,0,6.15.7,8.45,2.03l-2.03,4.89c-2.23-1.2-4.42-1.8-6.45-1.8-2.76,0-3.76.93-3.76,2.1,0,3.56,13.2.9,13.2,9.48,0,4.06-3.39,7.52-10.31,7.52-3.82,0-7.61-1.03-9.81-2.56Z"/><path class="cls-2" d="M150.49,72.51l-2.46,2.63v5.82h-6.52v-23.28h6.52v9.68l9.01-9.68h7.25l-9.51,10.31,10.01,12.97h-7.65l-6.65-8.45Z"/><path class="cls-2" d="M165.52,57.68h6.58v23.28h-6.58v-23.28Z"/><path class="cls-2" d="M175.8,57.68h6.58v18.06h11.11v5.22h-17.69v-23.28Z"/><path class="cls-2" d="M195.08,57.68h6.58v18.06h11.11v5.22h-17.69v-23.28Z"/><path class="cls-2" d="M212.67,78.86l2.16-4.85c2.06,1.36,4.99,2.29,7.68,2.29s3.79-.76,3.79-1.9c0-3.69-13.23-1-13.23-9.64,0-4.16,3.39-7.55,10.31-7.55,3.03,0,6.15.7,8.45,2.03l-2.03,4.89c-2.23-1.2-4.42-1.8-6.45-1.8-2.76,0-3.76.93-3.76,2.1,0,3.56,13.2.9,13.2,9.48,0,4.06-3.39,7.52-10.31,7.52-3.82,0-7.61-1.03-9.81-2.56Z"/><path class="cls-2" d="M141.98,94.87c0,5.29-3.99,8.58-10.34,8.58h-4.06v6.09h-6.58v-23.28h10.64c6.35,0,10.34,3.29,10.34,8.61ZM135.33,94.87c0-2.16-1.36-3.43-4.09-3.43h-3.66v6.82h3.66c2.73,0,4.09-1.26,4.09-3.39Z"/><path class="cls-2" d="M154.35,103.35h-3.59v6.19h-6.58v-23.28h10.64c6.35,0,10.34,3.29,10.34,8.61,0,3.43-1.66,5.95-4.56,7.35l5.02,7.32h-7.05l-4.22-6.19ZM154.42,91.44h-3.66v6.82h3.66c2.73,0,4.09-1.26,4.09-3.39s-1.36-3.43-4.09-3.43Z"/><path class="cls-2" d="M166.59,97.9c0-6.98,5.49-12.1,12.94-12.1s12.94,5.12,12.94,12.1-5.49,12.1-12.94,12.1-12.94-5.12-12.94-12.1ZM185.81,97.9c0-4.02-2.76-6.65-6.28-6.65s-6.28,2.63-6.28,6.65,2.76,6.65,6.28,6.65,6.28-2.63,6.28-6.65Z"/><path class="cls-2" d="M217.73,86.26l-9.98,23.28h-6.48l-9.94-23.28h7.12l6.32,15.16,6.45-15.16h6.52Z"/><path class="cls-2" d="M218.1,86.26h6.58v23.28h-6.58v-23.28Z"/><path class="cls-2" d="M228.37,86.26h11.01c7.71,0,13,4.49,13,11.64s-5.29,11.64-13,11.64h-11.01v-23.28ZM239.11,104.28c3.96,0,6.62-2.36,6.62-6.38s-2.66-6.38-6.62-6.38h-4.16v12.77h4.16Z"/><path class="cls-2" d="M273.53,104.45v5.09h-18.69v-23.28h18.26v5.09h-11.74v3.92h10.34v4.92h-10.34v4.26h12.17Z"/><path class="cls-2" d="M286.37,103.35h-3.59v6.19h-6.58v-23.28h10.64c6.35,0,10.34,3.29,10.34,8.61,0,3.43-1.66,5.95-4.56,7.35l5.02,7.32h-7.05l-4.22-6.19ZM286.43,91.44h-3.66v6.82h3.66c2.73,0,4.09-1.26,4.09-3.39s-1.36-3.43-4.09-3.43Z"/><path class="cls-2" d="M298.17,107.44l2.16-4.85c2.06,1.36,4.99,2.29,7.68,2.29s3.79-.76,3.79-1.9c0-3.69-13.23-1-13.23-9.64,0-4.16,3.39-7.55,10.31-7.55,3.03,0,6.15.7,8.45,2.03l-2.03,4.89c-2.23-1.2-4.42-1.8-6.45-1.8-2.76,0-3.76.93-3.76,2.1,0,3.56,13.2.9,13.2,9.48,0,4.06-3.39,7.52-10.31,7.52-3.82,0-7.61-1.03-9.81-2.56Z"/></svg>