<?xml version="1.0" encoding="UTF-8"?>
<svg xmlns="http://www.w3.org/2000/svg" width="250.668" height="143.213" viewBox="0 0 250.668 143.213">
  <g id="lsec" transform="translate(-0.084)">
    <path id="Path_50" data-name="Path 50" d="M234.993,75.085,223.679,63.469l26.5-25.714L223.618,11.5,234.993,0l38.3,37.875Z" transform="translate(-63.44)" fill="#ec008c"></path>
    <path id="Path_51" data-name="Path 51" d="M292.041,75.085,280.727,63.469l26.5-25.714L280.727,11.5,292.1,0l38.3,37.875Z" transform="translate(-79.648)" fill="#ec008c"></path>
    <g id="Group_28" data-name="Group 28" transform="translate(0.084 50.4)">
      <g id="Group_27" data-name="Group 27">
        <path id="Path_52" data-name="Path 52" d="M2.534,71.217h4.3V91.485H17.055V95.3H2.534Z" transform="translate(-0.78 -70.611)"></path>
        <path id="Path_53" data-name="Path 53" d="M24.922,82.957a12.875,12.875,0,0,1,.968-5.2,11.306,11.306,0,0,1,2.662-3.933,12.131,12.131,0,0,1,4.054-2.541,14.131,14.131,0,0,1,5.143-.908,14.461,14.461,0,0,1,5.2.908,12.4,12.4,0,0,1,4.114,2.541,12.053,12.053,0,0,1,2.723,3.933,14.305,14.305,0,0,1,0,10.346,11.957,11.957,0,0,1-6.837,6.595,14.461,14.461,0,0,1-5.2.908,14.131,14.131,0,0,1-5.143-.908,11.684,11.684,0,0,1-4.054-2.6A11.854,11.854,0,0,1,25.89,88.1,13.9,13.9,0,0,1,24.922,82.957Zm4.659,0a9.835,9.835,0,0,0,.605,3.57,8.586,8.586,0,0,0,1.694,2.783,8.934,8.934,0,0,0,2.6,1.876,8.6,8.6,0,0,0,3.328.666,8.9,8.9,0,0,0,3.388-.666,8,8,0,0,0,4.356-4.659,9.615,9.615,0,0,0,.605-3.57,8.979,8.979,0,0,0-.605-3.449,8.586,8.586,0,0,0-1.694-2.783,8.2,8.2,0,0,0-2.6-1.876,8.9,8.9,0,0,0-3.388-.666,8.675,8.675,0,0,0-3.388.666,8.2,8.2,0,0,0-2.6,1.876,8.586,8.586,0,0,0-1.694,2.783A10.293,10.293,0,0,0,29.58,82.957Z" transform="translate(-7.133 -70.372)"></path>
        <path id="Path_54" data-name="Path 54" d="M66.57,71.217h5.687l11.193,18.03h.061V71.217h4.3V95.3H82.362L70.926,76.722h-.061V95.3h-4.3Z" transform="translate(-18.954 -70.611)"></path>
        <path id="Path_55" data-name="Path 55" d="M103.91,71.217h8.531a18.04,18.04,0,0,1,4.719.605,13.31,13.31,0,0,1,4.3,2,10.837,10.837,0,0,1,3.086,3.691,12.358,12.358,0,0,1,1.21,5.687,11.669,11.669,0,0,1-1.21,5.445,11.058,11.058,0,0,1-3.086,3.751,13.707,13.707,0,0,1-4.3,2.178,15.973,15.973,0,0,1-4.719.726H103.91Zm7.805,20.329a15.57,15.57,0,0,0,3.328-.363,9.058,9.058,0,0,0,3.025-1.331,6.428,6.428,0,0,0,2.178-2.541,8.942,8.942,0,0,0,.847-4.054,9.584,9.584,0,0,0-.847-4.235,6.427,6.427,0,0,0-2.178-2.541,8.454,8.454,0,0,0-3.025-1.271,15.57,15.57,0,0,0-3.328-.363h-3.57V91.485h3.57Z" transform="translate(-29.551 -70.611)"></path>
        <path id="Path_56" data-name="Path 56" d="M138.547,82.957a12.875,12.875,0,0,1,.968-5.2,11.306,11.306,0,0,1,2.662-3.933,12.131,12.131,0,0,1,4.054-2.541,14.131,14.131,0,0,1,5.143-.908,14.461,14.461,0,0,1,5.2.908,12.4,12.4,0,0,1,4.114,2.541,12.052,12.052,0,0,1,2.723,3.933,14.305,14.305,0,0,1,0,10.346,11.957,11.957,0,0,1-6.837,6.595,14.461,14.461,0,0,1-5.2.908,14.131,14.131,0,0,1-5.143-.908,11.684,11.684,0,0,1-4.054-2.6,12.158,12.158,0,0,1-2.662-3.993A12.779,12.779,0,0,1,138.547,82.957Zm4.659,0a9.835,9.835,0,0,0,.605,3.57,8.586,8.586,0,0,0,1.694,2.783,8.934,8.934,0,0,0,2.6,1.876,8.6,8.6,0,0,0,3.328.666,8.9,8.9,0,0,0,3.388-.666,8,8,0,0,0,4.356-4.659,9.615,9.615,0,0,0,.605-3.57,8.979,8.979,0,0,0-.605-3.449,8.586,8.586,0,0,0-1.694-2.783,8.2,8.2,0,0,0-2.6-1.876,8.957,8.957,0,0,0-6.776,0,8.2,8.2,0,0,0-2.6,1.876,8.586,8.586,0,0,0-1.694,2.783A8.979,8.979,0,0,0,143.206,82.957Z" transform="translate(-39.381 -70.372)"></path>
        <path id="Path_57" data-name="Path 57" d="M180.111,71.217H185.8l11.193,18.03h.061V71.217h4.3V95.3H195.9L184.467,76.722h-.061V95.3h-4.3Z" transform="translate(-51.177 -70.611)"></path>
        <path id="Path_58" data-name="Path 58" d="M14.121,123.174a4.813,4.813,0,0,0-1.936-1.452,5.354,5.354,0,0,0-2.481-.605,6.863,6.863,0,0,0-1.513.182,3.349,3.349,0,0,0-1.331.605,3.335,3.335,0,0,0-1.029,1.029,2.947,2.947,0,0,0-.363,1.513,2.506,2.506,0,0,0,.363,1.392,3.463,3.463,0,0,0,.908.968,16.2,16.2,0,0,0,1.452.726c.545.182,1.21.424,1.876.605.787.242,1.573.545,2.42.847a8.558,8.558,0,0,1,2.3,1.271,6.079,6.079,0,0,1,1.694,2,6.313,6.313,0,0,1,.666,2.965,7.546,7.546,0,0,1-.726,3.388,7.441,7.441,0,0,1-1.876,2.42,9.319,9.319,0,0,1-2.783,1.452,12.389,12.389,0,0,1-3.388.484,13.437,13.437,0,0,1-4.6-.847A9.586,9.586,0,0,1,.084,139.57l3.086-2.844a6.775,6.775,0,0,0,2.36,1.936,6.243,6.243,0,0,0,4.417.545,4.846,4.846,0,0,0,1.392-.605,3.518,3.518,0,0,0,1.029-1.089,3.266,3.266,0,0,0,.363-1.634,2.666,2.666,0,0,0-.424-1.573,3.548,3.548,0,0,0-1.21-1.089,9.515,9.515,0,0,0-1.755-.787c-.666-.242-1.392-.484-2.118-.726s-1.452-.484-2.178-.787a5.977,5.977,0,0,1-1.936-1.271,5.672,5.672,0,0,1-1.392-1.936,6.622,6.622,0,0,1-.545-2.844,5.79,5.79,0,0,1,.787-3.146,5.77,5.77,0,0,1,2-2.178A7.6,7.6,0,0,1,6.8,118.273a11.386,11.386,0,0,1,3.207-.424,11.972,11.972,0,0,1,3.751.666,8.85,8.85,0,0,1,3.267,1.936Z" transform="translate(-0.084 -83.846)"></path>
        <path id="Path_59" data-name="Path 59" d="M28.385,130.012a12.875,12.875,0,0,1,.968-5.2,11.306,11.306,0,0,1,2.662-3.933,12.131,12.131,0,0,1,4.054-2.541,14.131,14.131,0,0,1,5.143-.908,14.461,14.461,0,0,1,5.2.908,12.4,12.4,0,0,1,4.114,2.541,12.053,12.053,0,0,1,2.723,3.933,14.305,14.305,0,0,1,0,10.346,11.957,11.957,0,0,1-6.837,6.595,14.462,14.462,0,0,1-5.2.908,14.132,14.132,0,0,1-5.143-.908,11.684,11.684,0,0,1-4.054-2.6,11.854,11.854,0,0,1-2.662-3.993A12.982,12.982,0,0,1,28.385,130.012Zm4.659,0a9.835,9.835,0,0,0,.605,3.57,8.586,8.586,0,0,0,1.694,2.783,8.934,8.934,0,0,0,2.6,1.876,8.6,8.6,0,0,0,3.328.666,8.9,8.9,0,0,0,3.388-.666,8,8,0,0,0,4.356-4.659,9.615,9.615,0,0,0,.605-3.57,8.979,8.979,0,0,0-.605-3.449,8.586,8.586,0,0,0-1.694-2.783,8.2,8.2,0,0,0-2.6-1.876,8.9,8.9,0,0,0-3.388-.666,8.675,8.675,0,0,0-3.388.666,8.2,8.2,0,0,0-2.6,1.876,8.586,8.586,0,0,0-1.694,2.783A8.979,8.979,0,0,0,33.044,130.012Z" transform="translate(-8.116 -83.726)"></path>
        <path id="Path_60" data-name="Path 60" d="M88.925,133.519a10.126,10.126,0,0,1-.726,3.933,7.925,7.925,0,0,1-2.057,2.965,8.8,8.8,0,0,1-3.086,1.876,11.3,11.3,0,0,1-3.872.666,11.561,11.561,0,0,1-3.872-.666,10.053,10.053,0,0,1-3.086-1.876,8.683,8.683,0,0,1-2.057-2.965,10.126,10.126,0,0,1-.726-3.933V118.272h4.3v15.065a8.43,8.43,0,0,0,.242,2.118,5.4,5.4,0,0,0,.908,1.876,4.747,4.747,0,0,0,1.694,1.331,5.452,5.452,0,0,0,2.541.484,6.341,6.341,0,0,0,2.541-.484,5.345,5.345,0,0,0,1.694-1.331,4.928,4.928,0,0,0,.908-1.876,8.137,8.137,0,0,0,.3-2.118V118.272h4.3v15.247Z" transform="translate(-19.769 -83.966)"></path>
        <path id="Path_61" data-name="Path 61" d="M109.856,122.023h-7.381v-3.751h19.059v3.751h-7.381v20.329h-4.3Z" transform="translate(-29.143 -83.966)"></path>
        <path id="Path_62" data-name="Path 62" d="M133.732,118.272h4.3v9.741h11.254v-9.741h4.3v24.081h-4.3V131.7H138.027v10.649h-4.3V118.272Z" transform="translate(-38.014 -83.966)"></path>
        <path id="Path_63" data-name="Path 63" d="M182.73,118.272H198.7v3.751H187.026v6.111H198.1v3.63H187.026v6.776h12.282v3.812H182.73Z" transform="translate(-51.92 -83.966)"></path>
        <path id="Path_64" data-name="Path 64" d="M219.977,118.272h3.691l10.346,24.081h-4.9l-2.239-5.506H216.407l-2.178,5.506H209.51Zm5.445,14.884-3.691-9.8-3.751,9.8Z" transform="translate(-59.521 -83.966)"></path>
        <path id="Path_65" data-name="Path 65" d="M259.958,123.174a4.429,4.429,0,0,0-1.936-1.452,5.354,5.354,0,0,0-2.481-.605,6.862,6.862,0,0,0-1.513.182,4.087,4.087,0,0,0-2.36,1.634,2.947,2.947,0,0,0-.363,1.513,2.507,2.507,0,0,0,.363,1.392,3.464,3.464,0,0,0,.908.968,16.2,16.2,0,0,0,1.452.726c.545.182,1.21.424,1.876.605.787.242,1.573.545,2.42.847a8.559,8.559,0,0,1,2.3,1.271,6.079,6.079,0,0,1,1.694,2,6.313,6.313,0,0,1,.666,2.965,7.546,7.546,0,0,1-.726,3.388,7.441,7.441,0,0,1-1.876,2.42,9.32,9.32,0,0,1-2.783,1.452,12.389,12.389,0,0,1-3.388.484,13.437,13.437,0,0,1-4.6-.847,8.975,8.975,0,0,1-3.691-2.541l3.086-2.844a6.775,6.775,0,0,0,2.36,1.936,6.243,6.243,0,0,0,4.417.545,4.846,4.846,0,0,0,1.392-.605,3.518,3.518,0,0,0,1.029-1.089,3.265,3.265,0,0,0,.363-1.634,2.666,2.666,0,0,0-.424-1.573,3.548,3.548,0,0,0-1.21-1.089,9.513,9.513,0,0,0-1.755-.787c-.666-.242-1.392-.484-2.118-.726s-1.452-.484-2.178-.787a5.977,5.977,0,0,1-1.936-1.271,5.672,5.672,0,0,1-1.392-1.936,6.621,6.621,0,0,1-.545-2.844,6.3,6.3,0,0,1,2.783-5.324,8.69,8.69,0,0,1,2.844-1.271,11.386,11.386,0,0,1,3.207-.424,11.972,11.972,0,0,1,3.751.666,8.851,8.851,0,0,1,3.267,1.936Z" transform="translate(-69.854 -83.846)"></path>
        <path id="Path_66" data-name="Path 66" d="M280.843,122.023h-7.382v-3.751H292.52v3.751h-7.381v20.329h-4.3Z" transform="translate(-77.67 -83.966)"></path>
        <path id="Path_67" data-name="Path 67" d="M19.443,170.714a5.145,5.145,0,0,0-2.481-1.876A7.641,7.641,0,0,0,14,168.234a8.675,8.675,0,0,0-3.388.666,9.214,9.214,0,0,0-2.662,1.876,7.657,7.657,0,0,0-1.694,2.783,9.41,9.41,0,0,0-.605,3.449,9.942,9.942,0,0,0,.605,3.63,7.62,7.62,0,0,0,4.175,4.6,8.458,8.458,0,0,0,3.388.666,7.238,7.238,0,0,0,3.449-.787,7.15,7.15,0,0,0,2.42-2l3.449,2.42a10.9,10.9,0,0,1-3.933,3.086,12.4,12.4,0,0,1-5.385,1.089,14.461,14.461,0,0,1-5.2-.908,12.275,12.275,0,0,1-4.054-2.6A12.822,12.822,0,0,1,1.9,182.21a14.144,14.144,0,0,1-.968-5.143,12.875,12.875,0,0,1,1.029-5.2,10.82,10.82,0,0,1,2.783-3.933,12.4,12.4,0,0,1,4.114-2.541A14.366,14.366,0,0,1,14,164.482a11.321,11.321,0,0,1,2.42.242,11.026,11.026,0,0,1,2.42.666,9.358,9.358,0,0,1,2.178,1.15,9.064,9.064,0,0,1,1.755,1.634Z" transform="translate(-0.324 -97.081)"></path>
        <path id="Path_68" data-name="Path 68" d="M33.792,177.067a12.875,12.875,0,0,1,.968-5.2,11.306,11.306,0,0,1,2.662-3.933,12.131,12.131,0,0,1,4.054-2.541,14.131,14.131,0,0,1,5.143-.908,14.461,14.461,0,0,1,5.2.908,12.4,12.4,0,0,1,4.114,2.541,12.053,12.053,0,0,1,2.723,3.933,14.305,14.305,0,0,1,0,10.346,11.956,11.956,0,0,1-6.837,6.595,14.461,14.461,0,0,1-5.2.908,14.131,14.131,0,0,1-5.143-.908,11.684,11.684,0,0,1-4.054-2.6,11.854,11.854,0,0,1-2.662-3.993A12.982,12.982,0,0,1,33.792,177.067Zm4.659,0a9.835,9.835,0,0,0,.605,3.57,8.586,8.586,0,0,0,1.694,2.783,8.934,8.934,0,0,0,2.6,1.876,8.594,8.594,0,0,0,3.328.666,8.9,8.9,0,0,0,3.388-.666,8,8,0,0,0,4.356-4.659,9.615,9.615,0,0,0,.605-3.57,8.979,8.979,0,0,0-.605-3.449,8.586,8.586,0,0,0-1.694-2.783,8.2,8.2,0,0,0-2.6-1.876,8.9,8.9,0,0,0-3.388-.666,8.675,8.675,0,0,0-3.388.666,8.2,8.2,0,0,0-2.6,1.876,8.586,8.586,0,0,0-1.694,2.783A8.979,8.979,0,0,0,38.451,177.067Z" transform="translate(-9.651 -97.081)"></path>
        <path id="Path_69" data-name="Path 69" d="M75.356,165.327h4.3V185.6H89.877v3.812H75.356Z" transform="translate(-21.447 -97.321)"></path>
        <path id="Path_70" data-name="Path 70" d="M100.869,165.327h4.3V185.6H115.39v3.812H100.869Z" transform="translate(-28.688 -97.321)"></path>
        <path id="Path_71" data-name="Path 71" d="M126.3,165.327H142.27v3.751H130.593v6.111h11.072v3.63H130.593V185.6h12.282v3.812H126.3Z" transform="translate(-35.904 -97.321)"></path>
        <path id="Path_72" data-name="Path 72" d="M176.019,187.921a18.755,18.755,0,0,1-4.054,1.392,24.805,24.805,0,0,1-5.022.484,14.9,14.9,0,0,1-5.324-.908,12.823,12.823,0,0,1-4.175-2.6,13.325,13.325,0,0,1-2.662-14.339,10.82,10.82,0,0,1,2.783-3.933,12.4,12.4,0,0,1,4.114-2.541,14.366,14.366,0,0,1,5.143-.908,16.006,16.006,0,0,1,5.264.847,10.811,10.811,0,0,1,3.872,2.178l-2.965,3.207a7.532,7.532,0,0,0-2.541-1.755,8.758,8.758,0,0,0-3.57-.726,8.983,8.983,0,0,0-3.449.666,8.463,8.463,0,0,0-2.662,1.876,8.586,8.586,0,0,0-1.694,2.783,9.41,9.41,0,0,0-.605,3.449,9.835,9.835,0,0,0,.605,3.57,8.586,8.586,0,0,0,1.694,2.783,8.463,8.463,0,0,0,2.662,1.876,8.358,8.358,0,0,0,3.57.666,12.729,12.729,0,0,0,4.78-.847v-6.111H166.7v-3.509h9.2v12.4Z" transform="translate(-43.697 -97.105)"></path>
        <path id="Path_73" data-name="Path 73" d="M191.769,165.327h15.973v3.751H196.065v6.111h11.072v3.63H196.065V185.6h12.282v3.812H191.769Z" transform="translate(-54.486 -97.321)"></path>
        <path id="Path_74" data-name="Path 74" d="M233.347,170.229a4.429,4.429,0,0,0-1.936-1.452,5.354,5.354,0,0,0-2.481-.605,6.862,6.862,0,0,0-1.513.182,4.087,4.087,0,0,0-2.36,1.634,2.947,2.947,0,0,0-.363,1.513,2.506,2.506,0,0,0,.363,1.392,3.464,3.464,0,0,0,.908.968,8.125,8.125,0,0,0,1.452.726c.545.182,1.21.424,1.876.605.787.242,1.573.545,2.42.847a8.558,8.558,0,0,1,2.3,1.271,5.439,5.439,0,0,1,1.694,2,6.14,6.14,0,0,1,.666,2.965,7.546,7.546,0,0,1-.726,3.388,7.441,7.441,0,0,1-1.876,2.42,8.117,8.117,0,0,1-2.783,1.452,12.39,12.39,0,0,1-3.388.484,13.437,13.437,0,0,1-4.6-.847,8.975,8.975,0,0,1-3.691-2.541l3.086-2.844a6.775,6.775,0,0,0,2.36,1.936,6.244,6.244,0,0,0,4.417.545,4.845,4.845,0,0,0,1.392-.605,3.518,3.518,0,0,0,1.029-1.089,3.266,3.266,0,0,0,.363-1.634,2.666,2.666,0,0,0-.424-1.573,3.548,3.548,0,0,0-1.21-1.089,9.516,9.516,0,0,0-1.755-.787c-.666-.242-1.392-.484-2.118-.726s-1.452-.484-2.178-.787a5.978,5.978,0,0,1-1.936-1.271,5.672,5.672,0,0,1-1.392-1.936,6.622,6.622,0,0,1-.545-2.844,6.3,6.3,0,0,1,2.783-5.324,8.69,8.69,0,0,1,2.844-1.271,14.579,14.579,0,0,1,3.207-.424,11.972,11.972,0,0,1,3.751.666,8.851,8.851,0,0,1,3.267,1.936Z" transform="translate(-62.302 -97.201)"></path>
      </g>
    </g>
  </g>
</svg>
