<svg xmlns="http://www.w3.org/2000/svg" width="100" height="99.242" viewBox="0 0 100 99.242">
  <g id="Group_18" data-name="Group 18" transform="translate(0 60)">
    <g id="Group_1" data-name="Group 1" transform="translate(0 -60)">
      <path id="Path_12" data-name="Path 12" d="M245.087,53.913V37.8a11,11,0,0,0-11-11H224.1V74.9h37.1a11,11,0,0,0,11-11V53.913Z" transform="translate(-172.2 -26.8)"/>
      <path id="Path_13" data-name="Path 13" d="M96.913,53.913H80.8a11,11,0,0,0-11,11V74.9h48.1V37.8a11,11,0,0,0-11-11H96.913Z" transform="translate(-69.8 -26.8)"/>
      <path id="Path_14" data-name="Path 14" d="M96.913,202.087V218.2a11,11,0,0,0,11,11H117.9V181.1H80.8a11,11,0,0,0-11,11v9.986Z" transform="translate(-69.8 -129.958)"/>
      <path id="Path_15" data-name="Path 15" d="M245.087,202.087H261.2a11,11,0,0,0,11-11V181.1H224.1v37.1a11,11,0,0,0,11,11h9.986Z" transform="translate(-172.2 -129.958)"/>
    </g>
  </g>
</svg>
